<?xml version="1.0" standalone="no"?>
<!DOCTYPE svg PUBLIC "-//W3C//DTD SVG 20010904//EN"
 "http://www.w3.org/TR/2001/REC-SVG-20010904/DTD/svg10.dtd">
<svg version="1.0" xmlns="http://www.w3.org/2000/svg"
 width="1500.000000pt" height="755.000000pt" viewBox="0 0 1500.000000 755.000000"
 preserveAspectRatio="xMidYMid meet">

<g transform="translate(0.000000,755.000000) scale(0.100000,-0.100000)"
fill="#000000" stroke="none">
<path d="M5250 7071 c-13 -8 -1598 -646 -3929 -1582 -327 -131 -596 -241 -598
-243 -5 -5 425 -866 432 -866 3 0 897 584 1987 1297 1091 713 2015 1317 2053
1341 39 25 74 49 80 53 12 12 -5 11 -25 0z"/>
<path d="M5905 6999 c-3 -8 -4 -651 -3 -1429 l3 -1415 310 0 310 0 3 578 2
577 195 0 195 0 0 300 0 300 -195 0 -195 0 0 245 0 245 255 0 255 0 0 300 0
300 -504 0 c-276 0 -531 3 -564 6 -48 5 -63 4 -67 -7z"/>
<path d="M7180 5847 c0 -1126 1 -1166 20 -1241 31 -122 82 -209 180 -307 68
-69 102 -94 170 -128 141 -69 283 -87 437 -55 231 47 423 220 501 448 l27 81
0 1180 0 1180 -290 0 -290 0 -5 -1118 c-5 -1093 -5 -1119 -24 -1133 -25 -18
-87 -18 -112 0 -19 14 -19 40 -24 1133 l-5 1118 -292 3 -293 2 0 -1163z"/>
<path d="M8670 6680 l0 -330 175 0 175 0 2 -1097 3 -1098 313 -3 312 -2 0
1100 0 1100 180 0 180 0 0 330 0 330 -670 0 -670 0 0 -330z"/>
<path d="M10144 6997 c-2 -7 -3 -537 -1 -1178 3 -1084 4 -1168 21 -1223 124
-414 565 -611 946 -425 115 56 248 188 302 299 71 144 68 76 68 1373 l0 1167
-290 0 -290 0 0 -1109 c0 -1106 0 -1108 -21 -1135 -26 -32 -84 -36 -120 -7
l-24 19 -5 1114 -5 1113 -288 3 c-231 2 -289 0 -293 -11z"/>
<path d="M11610 5580 l0 -1430 290 0 290 0 0 585 0 586 66 -3 c60 -3 69 -6 88
-31 20 -28 21 -41 27 -515 6 -507 8 -534 51 -594 l19 -28 305 0 c196 0 304 4
304 10 0 6 -4 10 -8 10 -5 0 -17 17 -28 38 -18 35 -19 69 -25 547 -4 421 -8
522 -22 581 -37 161 -94 233 -232 289 l-57 23 44 30 c72 50 166 155 198 223
46 98 52 147 48 397 -3 207 -6 232 -26 283 -69 174 -221 321 -398 385 -96 35
-209 44 -591 44 l-343 0 0 -1430z m735 868 l25 -30 0 -219 c0 -282 -7 -299
-124 -299 l-56 0 0 288 c0 159 2 291 4 293 2 2 32 2 65 1 53 -3 64 -8 86 -34z"/>
<path d="M13148 7004 c-5 -4 -8 -648 -8 -1431 l0 -1423 568 2 567 3 0 300 0
300 -255 2 -255 2 -3 275 -2 276 195 0 195 0 0 300 0 300 -195 0 -195 0 0 245
0 245 260 0 260 0 0 300 0 300 -512 0 c-282 0 -535 3 -563 6 -27 3 -53 3 -57
-2z"/>
<path d="M5215 6689 c-22 -15 -913 -598 -1980 -1294 -1067 -696 -1944 -1271
-1949 -1278 -5 -8 287 -609 855 -1759 475 -960 865 -1745 867 -1744 2 3 -30
221 -223 1521 -35 237 -102 689 -149 1006 -47 317 -86 583 -86 592 0 9 224
261 498 559 273 299 866 946 1316 1438 451 492 840 916 865 943 51 53 46 60
-14 16z"/>
<path d="M3620 4205 c-483 -367 -705 -541 -704 -553 0 -17 537 -1422 541
-1418 1 1 -9 272 -22 602 -14 329 -25 628 -25 664 l0 65 416 530 c228 292 435
556 460 588 25 31 44 57 42 57 -2 -1 -320 -241 -708 -535z"/>
<path d="M9722 3950 c-295 -54 -541 -283 -615 -575 -25 -95 -30 -208 -18 -379
18 -249 49 -362 137 -503 86 -137 151 -211 401 -458 255 -253 278 -283 308
-419 24 -105 18 -244 -11 -283 -17 -23 -30 -29 -67 -31 -39 -3 -51 1 -72 22
-25 25 -25 26 -25 206 l0 180 -340 0 -340 0 0 -198 c0 -242 12 -341 53 -452
109 -288 370 -481 677 -497 236 -12 422 59 590 227 206 206 252 383 220 848
-22 318 -66 395 -448 786 -239 245 -294 310 -348 418 -77 153 -85 332 -16 384
29 23 90 17 117 -11 25 -24 25 -26 25 -210 l0 -185 340 0 340 0 0 213 c-1 133
-6 240 -14 287 -52 288 -260 522 -541 610 -80 25 -266 35 -353 20z"/>
<path d="M13342 3950 c-295 -54 -541 -283 -615 -575 -25 -95 -30 -208 -18
-379 18 -249 49 -362 137 -503 86 -137 151 -211 401 -458 255 -253 278 -283
308 -419 24 -105 18 -244 -11 -283 -17 -23 -30 -29 -67 -31 -39 -3 -51 1 -72
22 -25 25 -25 26 -25 206 l0 180 -340 0 -340 0 0 -198 c0 -242 12 -341 53
-452 109 -288 370 -481 677 -497 236 -12 422 59 590 227 206 206 252 383 220
848 -22 318 -66 395 -448 786 -239 245 -294 310 -348 418 -77 153 -85 332 -16
384 29 23 90 17 117 -11 25 -24 25 -26 25 -210 l0 -185 340 0 340 0 0 213 c-1
133 -6 240 -14 287 -52 288 -260 522 -541 610 -80 25 -266 35 -353 20z"/>
<path d="M5910 2265 l0 -1646 458 4 c390 3 465 6 513 20 142 42 253 111 360
225 87 91 139 176 177 287 l27 80 0 1030 0 1030 -27 80 c-38 111 -90 196 -177
287 -107 114 -218 183 -360 225 -48 14 -123 17 -513 20 l-458 4 0 -1646z m819
961 c8 -6 22 -29 32 -51 18 -38 19 -90 19 -903 0 -927 1 -902 -51 -951 -18
-16 -35 -21 -81 -21 l-58 0 0 969 0 970 43 4 c49 4 76 -1 96 -17z"/>
<path d="M7632 2268 l3 -1643 653 -3 652 -2 0 350 0 351 -292 -1 -293 -1 0
316 0 316 220 2 220 2 3 348 2 347 -225 0 -225 0 2 281 3 280 293 -1 292 -1 0
351 0 350 -655 0 -655 0 2 -1642z"/>
<path d="M12110 3902 l-295 -2 -143 -523 c-79 -287 -147 -531 -152 -542 -5
-12 -9 205 -9 523 l-1 542 -350 0 -350 0 0 -1640 0 -1640 350 0 350 0 2 687 3
687 184 -670 c101 -368 188 -677 193 -687 8 -16 33 -17 356 -15 302 3 347 5
344 18 -2 8 -120 406 -263 883 l-258 869 224 753 c124 415 225 756 225 759 0
3 -26 5 -57 4 -32 -2 -191 -4 -353 -6z"/>
</g>
</svg>
